<?xml version="1.0" standalone="no"?>
<!DOCTYPE svg PUBLIC "-//W3C//DTD SVG 20010904//EN"
 "http://www.w3.org/TR/2001/REC-SVG-20010904/DTD/svg10.dtd">
<svg version="1.0" xmlns="http://www.w3.org/2000/svg"
 width="199.000000pt" height="248.000000pt" viewBox="0 0 199.000000 248.000000"
 preserveAspectRatio="xMidYMid meet">

<g transform="translate(0.000000,248.000000) scale(0.100000,-0.100000)"
fill="#000000" stroke="none">
<path d="M608 1991 c-100 -39 -160 -97 -174 -169 -19 -93 90 -208 217 -228 30
-5 56 -19 86 -47 25 -23 67 -48 96 -58 53 -18 77 -16 42 4 -31 17 -75 64 -75
80 0 9 17 19 43 25 53 14 125 61 157 104 36 48 40 131 8 178 -33 49 -100 97
-160 115 -70 21 -181 19 -240 -4z"/>
<path d="M1057 1393 c-4 -3 -7 -42 -7 -85 0 -87 -14 -97 -24 -18 -9 65 -15 80
-33 80 -16 0 -16 -10 3 -129 9 -56 -9 -48 -36 15 -20 45 -40 58 -40 27 0 -10
9 -42 20 -71 11 -29 20 -69 20 -88 0 -20 8 -51 19 -68 20 -34 19 -101 -12
-531 l-12 -170 -76 -3 -77 -3 -7 167 c-4 92 -5 223 -3 291 4 111 7 126 28 148
20 21 70 126 70 148 0 19 -33 4 -48 -23 -9 -16 -21 -30 -25 -30 -5 0 -5 41 -1
90 6 77 4 90 -9 90 -19 0 -27 -21 -27 -71 0 -67 -19 -43 -22 29 -2 37 -7 67
-13 67 -5 0 -12 -34 -15 -75 -6 -76 -8 -74 -27 13 -4 21 -12 37 -18 35 -11 -3
-12 -36 -3 -90 8 -48 -7 -49 -26 -3 -15 35 -36 47 -36 21 0 -7 7 -30 15 -49 8
-20 15 -51 15 -69 0 -18 9 -50 20 -70 19 -36 19 -42 5 -285 -9 -136 -18 -267
-21 -290 l-5 -43 -91 0 -90 0 6 53 c3 28 11 106 18 172 9 95 16 126 35 154 13
18 23 43 23 55 0 12 9 35 20 51 11 17 20 39 20 50 -1 17 -5 14 -30 -15 -33
-39 -37 -32 -15 30 18 52 19 60 2 60 -8 0 -21 -21 -30 -47 l-16 -48 6 63 c4
41 2 62 -5 62 -10 0 -19 -24 -35 -95 -3 -11 -5 1 -6 27 -1 46 -13 69 -26 48
-3 -5 -9 -42 -12 -80 -3 -39 -10 -73 -14 -76 -5 -3 -9 3 -9 14 0 21 -36 59
-47 48 -4 -3 -1 -21 5 -39 7 -19 12 -43 12 -56 0 -12 9 -34 20 -49 l20 -28
-26 -149 c-14 -83 -28 -162 -31 -178 l-5 -27 -174 0 -174 0 0 -45 0 -45 995 0
995 0 0 45 0 45 -249 0 -249 0 -57 232 c-61 247 -59 224 -39 421 7 64 -11 81
-22 22 -10 -55 -24 -41 -24 25 0 33 -4 60 -10 60 -5 0 -10 -26 -10 -57 0 -67
-10 -64 -21 8 -5 28 -11 54 -14 57 -14 14 -22 -18 -16 -65 8 -58 1 -61 -14 -5
-6 19 -16 37 -24 40 -14 5 -15 7 6 -123 l6 -40 -26 30 c-20 24 -28 27 -38 18
-10 -10 -9 -16 3 -30 9 -10 23 -33 33 -52 10 -19 26 -42 37 -50 15 -13 26 -57
53 -206 18 -105 36 -211 40 -237 l7 -48 -115 0 -115 0 -7 208 c-4 114 -5 264
-2 335 4 122 6 128 30 147 14 11 31 37 37 58 7 20 22 54 33 75 17 30 18 40 8
50 -12 12 -32 -4 -69 -59 -10 -16 -12 -1 -7 88 4 75 3 108 -5 113 -19 12 -31
-9 -37 -69 -8 -81 -23 -80 -23 3 0 88 -10 117 -33 94z"/>
</g>
</svg>
